<svg xmlns="http://www.w3.org/2000/svg" viewBox="0 0 512 512" role="img" aria-label="CyTask">
  <rect width="512" height="512" rx="120" fill="#0b1017"/>
  <rect x="54" y="54" width="404" height="404" rx="96" fill="#132a24" stroke="#4d8b75" stroke-width="12"/>
  <path d="M349 180c-25-27-55-41-91-41-68 0-119 50-119 117s51 117 119 117c37 0 69-15 94-44l-43-39c-14 17-30 25-50 25-34 0-58-25-58-59s24-59 58-59c19 0 35 8 49 24z" fill="#7cf2c4"/>
  <path d="m296 263 28 27 57-70" fill="none" stroke="#eaf0f7" stroke-linecap="round" stroke-linejoin="round" stroke-width="24"/>
</svg>
